<?xml version="1.0" encoding="UTF-8"?>
<!--Generator: Apple Native CoreSVG 232.5-->
<!DOCTYPE svg
PUBLIC "-//W3C//DTD SVG 1.1//EN"
       "http://www.w3.org/Graphics/SVG/1.1/DTD/svg11.dtd">
<svg version="1.1" xmlns="http://www.w3.org/2000/svg" xmlns:xlink="http://www.w3.org/1999/xlink" width="19.9198" height="19.9218">
 <g>
  <rect height="19.9218" opacity="0" width="19.9198" x="0" y="0"/>
  <path d="M9.95468 19.9094C15.3993 19.9094 19.9197 15.3993 19.9197 9.95469C19.9197 4.51006 15.389 0 9.94433 0C4.50794 0-8.88178e-16 4.51006-8.88178e-16 9.95469C-8.88178e-16 15.3993 4.51831 19.9094 9.95468 19.9094ZM9.95468 18.2559C5.3575 18.2559 1.6721 14.5622 1.6721 9.95469C1.6721 5.34716 5.34716 1.6535 9.94433 1.6535C14.5519 1.6535 18.2559 5.34716 18.2559 9.95469C18.2559 14.5622 14.5622 18.2559 9.95468 18.2559Z" fill="#ffffff"/>
  <path d="M5.67595 10.6261C5.67595 10.8687 5.8688 11.0491 6.12395 11.0491L9.42501 11.0491L7.66319 15.7943C7.43084 16.4229 8.09047 16.759 8.50952 16.259L13.8588 9.54075C13.9667 9.41616 14.0248 9.27717 14.0248 9.15065C14.0248 8.90796 13.8195 8.72759 13.5747 8.72759L10.2633 8.72759L12.0251 3.99272C12.2699 3.36626 11.5978 3.01777 11.1891 3.52805L5.83162 10.2381C5.73405 10.3627 5.67595 10.4995 5.67595 10.6261Z" fill="#ffffff"/>
 </g>
</svg>
