<?xml version="1.0" encoding="UTF-8"?>
<!--Generator: Apple Native CoreSVG 232.5-->
<!DOCTYPE svg
PUBLIC "-//W3C//DTD SVG 1.1//EN"
       "http://www.w3.org/Graphics/SVG/1.1/DTD/svg11.dtd">
<svg version="1.1" xmlns="http://www.w3.org/2000/svg" xmlns:xlink="http://www.w3.org/1999/xlink" width="21.7049" height="21.822">
 <g>
  <rect height="21.822" opacity="0" width="21.7049" x="0" y="0"/>
  <path d="M3.77338 6.57936C3.00264 7.83235 2.56462 9.31411 2.56462 10.9048C2.56462 15.5123 6.25003 19.206 10.8472 19.206C12.4413 19.206 13.926 18.7638 15.1808 17.9867L16.3596 19.1656C14.7749 20.2338 12.8752 20.8595 10.8472 20.8595C5.41083 20.8595 0.892527 16.3494 0.892527 10.9048C0.892527 8.87569 1.51863 6.9764 2.58692 5.3929ZM20.8123 10.9048C20.8123 12.9657 20.1645 14.8928 19.0622 16.4905L17.8842 15.3125C18.6888 14.0417 19.1484 12.5301 19.1484 10.9048C19.1484 6.29726 15.4444 2.6036 10.8369 2.6036C9.21454 2.6036 7.70706 3.06359 6.44043 3.86871L5.26402 2.6923C6.85916 1.59467 8.78166 0.9501 10.8369 0.9501C16.2815 0.9501 20.8123 5.46016 20.8123 10.9048Z" fill="#ffffff"/>
  <path d="M11.6189 14.4249L9.40204 17.2091C8.983 17.7091 8.32337 17.373 8.55572 16.7444L10.0131 12.8191ZM7.01648 11.9992C6.76133 11.9992 6.56848 11.8189 6.56848 11.5762C6.56848 11.4496 6.62658 11.3128 6.72415 11.1882L7.46025 10.2662L9.19326 11.9992ZM14.4672 9.67769C14.712 9.67769 14.9173 9.85806 14.9173 10.1007C14.9173 10.2273 14.8592 10.3663 14.7513 10.4909L14.0027 11.431L12.2494 9.67769ZM12.9176 4.94282L11.4524 8.88066L9.84774 7.27602L12.0816 4.47815C12.4903 3.96787 13.1624 4.31636 12.9176 4.94282Z" fill="#ffffff"/>
  <path d="M2.43771 1.48203L20.34 19.3843L20.34 19.3843C20.6363 19.6806 20.6363 20.1609 20.34 20.4571L20.34 20.4571L20.34 20.4571C20.0438 20.7534 19.5634 20.7534 19.2672 20.4571L1.3649 2.55485L1.3649 2.55485C1.06864 2.2586 1.06864 1.77828 1.3649 1.48203L1.3649 1.48203L1.3649 1.48203C1.66115 1.18578 2.14146 1.18578 2.43771 1.48203Z" fill="#ffffff"/>
 </g>
</svg>
